<?xml version="1.0" standalone="no"?>
<!DOCTYPE svg PUBLIC "-//W3C//DTD SVG 20010904//EN"
 "http://www.w3.org/TR/2001/REC-SVG-20010904/DTD/svg10.dtd">
<svg version="1.0" xmlns="http://www.w3.org/2000/svg"
 width="2067.000000pt" height="1978.000000pt" viewBox="0 0 2067.000000 1978.000000"
 preserveAspectRatio="xMidYMid meet">

<g transform="translate(0.000000,1978.000000) scale(0.100000,-0.100000)"
fill="#000000" stroke="none">
<path d="M2930 19341 c-13 -26 -13 -54 2 -69 8 -8 51 -12 126 -12 62 0 122 -5
132 -10 10 -6 115 -24 232 -41 117 -16 217 -34 222 -40 6 -5 25 -9 43 -9 18 0
49 -9 69 -19 31 -17 50 -19 147 -14 83 4 133 1 191 -11 43 -9 100 -16 128 -16
39 0 54 -5 71 -24 21 -22 31 -23 167 -29 164 -6 437 -43 460 -62 9 -8 53 -14
108 -17 52 -2 97 -9 104 -16 7 -7 42 -12 82 -13 115 -1 295 -25 325 -43 7 -5
45 -12 85 -16 39 -5 93 -16 120 -25 36 -12 66 -15 110 -11 34 4 86 2 116 -4
49 -10 100 -18 206 -35 21 -4 34 -13 37 -25 5 -19 14 -20 134 -20 70 0 143 -4
161 -9 18 -6 77 -13 130 -17 53 -3 111 -13 127 -21 17 -8 83 -18 148 -23 64
-5 126 -14 137 -20 10 -5 29 -10 42 -10 13 0 33 -7 44 -15 12 -9 42 -14 79
-15 34 0 66 -5 73 -12 7 -7 58 -13 134 -16 68 -2 128 -9 135 -14 6 -5 56 -14
110 -20 54 -6 108 -16 119 -24 12 -7 68 -18 125 -24 58 -6 109 -16 118 -24 11
-9 55 -15 143 -18 70 -3 133 -10 140 -15 7 -6 46 -16 87 -22 41 -7 79 -18 85
-25 8 -10 50 -16 136 -21 68 -3 132 -11 141 -16 9 -5 61 -14 115 -20 54 -6
116 -17 139 -26 39 -15 127 -30 215 -38 25 -2 45 -5 45 -6 0 0 34 -7 75 -14
112 -20 367 -73 435 -91 33 -9 94 -20 135 -26 41 -5 82 -16 91 -24 9 -8 41
-16 72 -18 31 -2 70 -11 87 -20 18 -8 73 -19 123 -22 50 -4 102 -13 116 -21
14 -7 42 -13 63 -13 20 0 65 -9 100 -21 34 -11 81 -24 103 -29 22 -5 58 -15
80 -24 22 -8 57 -15 78 -16 21 0 51 -7 67 -15 16 -8 58 -18 92 -21 35 -3 89
-14 121 -25 31 -10 68 -19 82 -19 13 0 39 -8 57 -18 18 -10 52 -21 76 -25 24
-3 51 -12 61 -21 10 -9 35 -16 57 -16 21 0 53 -7 69 -16 17 -9 57 -18 90 -21
33 -4 69 -12 80 -19 11 -6 43 -17 70 -22 28 -6 64 -18 80 -26 17 -9 43 -16 58
-16 15 0 39 -7 52 -16 13 -9 37 -14 52 -13 17 2 47 -8 74 -24 25 -15 57 -27
72 -27 14 0 38 -7 54 -15 72 -37 161 -75 175 -75 9 0 21 -7 28 -15 7 -8 23
-15 36 -15 17 0 28 -8 34 -25 12 -32 37 -42 62 -26 23 14 84 5 92 -15 3 -8 19
-14 36 -14 17 0 48 -11 68 -25 20 -14 46 -25 58 -25 12 0 27 -7 34 -15 7 -8
20 -15 29 -15 10 0 27 -13 39 -30 15 -19 31 -30 47 -30 14 0 25 -4 25 -10 0
-5 16 -10 35 -10 24 0 37 -6 45 -20 6 -11 16 -20 22 -20 19 0 101 -42 127 -64
13 -12 27 -32 32 -45 8 -19 14 -22 38 -18 29 6 45 -4 106 -63 12 -11 28 -20
38 -20 21 0 22 -16 1 -24 -23 -9 -14 -50 13 -54 14 -2 23 -11 25 -25 4 -32 67
-38 75 -8 3 12 9 21 13 21 5 0 46 -41 91 -90 88 -96 159 -206 159 -245 0 -14
9 -29 21 -35 41 -23 81 -158 83 -280 1 -80 -1 -90 -40 -171 -27 -55 -63 -108
-100 -149 -73 -78 -206 -180 -254 -192 -19 -6 -55 -26 -80 -47 -44 -36 -69
-51 -125 -78 -16 -8 -37 -18 -45 -23 -8 -6 -34 -19 -58 -30 -48 -24 -53 -50
-12 -61 23 -6 22 -7 -7 -8 -21 -1 -37 -8 -45 -21 -9 -14 -24 -20 -46 -20 -22
0 -45 -9 -64 -25 -16 -14 -40 -25 -52 -25 -13 0 -31 -9 -41 -20 -12 -13 -25
-17 -45 -14 -21 5 -32 0 -47 -20 -25 -32 -30 -32 -29 -4 1 34 -32 36 -44 2
-10 -25 -11 -26 -24 -9 -13 18 -17 17 -97 -9 -46 -15 -109 -30 -139 -33 -35
-4 -62 -13 -73 -24 -10 -11 -28 -19 -40 -19 -12 0 -35 -9 -52 -20 -16 -11 -41
-20 -55 -20 -14 0 -33 -9 -43 -20 -9 -11 -27 -20 -39 -20 -13 -1 -41 -8 -63
-16 -22 -9 -62 -20 -88 -24 -27 -5 -56 -15 -64 -22 -33 -27 -379 -138 -431
-138 -8 0 -28 -6 -45 -13 -51 -22 -102 -37 -125 -37 -11 0 -24 -4 -27 -10 -8
-12 -86 -47 -139 -61 -22 -6 -45 -14 -51 -19 -22 -17 -208 -62 -262 -64 -46
-1 -59 -5 -61 -19 -2 -9 -13 -17 -24 -17 -11 0 -32 -8 -46 -19 -15 -10 -48
-21 -74 -25 -26 -4 -51 -13 -55 -20 -5 -7 -35 -18 -68 -25 -33 -7 -64 -17 -70
-21 -5 -4 -34 -10 -64 -12 -41 -4 -58 -11 -71 -28 -15 -20 -25 -22 -79 -21
-34 0 -1121 70 -2414 155 -1294 85 -2400 154 -2460 154 -59 1 -196 8 -305 16
-108 8 -271 20 -362 26 -91 6 -226 15 -300 20 -74 6 -218 14 -320 20 -168 9
-578 35 -950 61 -319 22 -472 23 -555 4 -95 -21 -237 -94 -282 -144 -138 -154
-287 -462 -354 -731 -15 -63 -42 -160 -59 -215 -39 -125 -106 -381 -131 -498
-20 -96 -188 -708 -780 -2852 -214 -775 -398 -1433 -409 -1462 -10 -28 -31
-103 -47 -165 -25 -102 -28 -130 -28 -283 0 -150 3 -179 23 -245 66 -209 191
-342 417 -442 71 -32 221 -61 430 -83 83 -9 193 -23 245 -30 52 -8 174 -23
270 -35 96 -12 238 -30 315 -40 171 -24 343 -45 535 -66 80 -8 190 -22 245
-30 55 -8 149 -17 210 -20 108 -4 301 -26 309 -35 2 -2 8 -92 15 -199 6 -107
16 -231 21 -275 26 -198 32 -246 46 -330 33 -205 56 -316 110 -535 83 -339 97
-386 209 -725 186 -560 475 -1211 795 -1790 46 -82 93 -168 104 -190 29 -53
179 -304 231 -385 23 -36 72 -114 109 -175 37 -60 85 -137 107 -170 21 -33 41
-67 45 -75 17 -45 15 -45 169 -48 151 -3 175 2 175 37 0 22 -9 37 -122 205
-54 80 -98 148 -98 152 0 4 -18 31 -40 60 -22 29 -40 57 -40 61 0 4 -28 52
-63 105 -90 141 -148 234 -180 292 -16 28 -35 61 -43 74 -8 13 -25 42 -38 65
-13 23 -51 92 -86 152 -121 214 -422 819 -445 895 -4 14 -11 27 -15 30 -11 8
-161 372 -226 550 -68 184 -83 226 -118 335 -19 61 -47 146 -61 190 -14 44
-44 147 -66 230 -22 82 -44 166 -49 185 -21 78 -81 364 -105 505 -28 159 -34
207 -59 460 -8 88 -18 185 -21 216 l-6 56 63 -8 c35 -4 126 -15 203 -24 223
-26 531 -65 905 -115 80 -10 177 -22 215 -25 39 -3 140 -15 225 -26 141 -17
230 -29 595 -75 66 -8 129 -19 140 -23 12 -5 28 -30 39 -62 22 -61 95 -239
130 -314 13 -27 36 -79 52 -115 59 -132 127 -256 155 -282 29 -28 31 -28 162
-28 141 0 157 5 157 47 0 13 -55 135 -123 271 -115 230 -197 411 -197 433 0 6
22 7 53 4 119 -14 303 -37 482 -60 250 -33 414 -52 555 -65 63 -6 225 -26 360
-44 394 -55 817 -109 1015 -131 272 -31 241 -21 308 -100 32 -38 70 -85 85
-103 15 -18 34 -41 42 -51 256 -294 602 -644 860 -871 41 -36 97 -86 125 -111
27 -25 102 -88 165 -139 63 -52 148 -121 187 -155 40 -33 93 -76 118 -95 25
-19 57 -44 70 -55 14 -11 35 -28 48 -38 12 -10 74 -56 137 -102 63 -46 140
-103 170 -126 164 -122 278 -205 390 -281 69 -46 145 -99 170 -117 37 -27 193
-129 420 -276 172 -111 216 -139 290 -184 47 -29 94 -58 105 -64 10 -7 49 -31
86 -55 36 -23 71 -42 77 -42 6 0 15 -6 19 -13 4 -6 35 -25 68 -42 33 -16 68
-36 78 -44 18 -15 44 -31 92 -56 17 -9 46 -26 67 -38 35 -21 142 -83 203 -117
89 -50 162 -92 175 -101 8 -5 29 -16 45 -25 17 -8 48 -26 70 -40 22 -13 58
-33 80 -44 22 -12 58 -31 80 -44 77 -46 137 -76 150 -76 8 0 18 -6 22 -14 4
-8 40 -29 78 -47 39 -18 72 -35 75 -39 3 -3 41 -24 85 -47 266 -135 362 -184
375 -193 8 -5 98 -52 200 -103 102 -51 196 -100 210 -110 13 -9 32 -17 42 -17
10 0 18 -6 18 -14 0 -8 7 -17 16 -20 9 -3 161 -6 339 -6 281 0 326 2 339 16 9
8 16 20 16 25 0 13 -46 59 -60 59 -12 0 -62 22 -185 80 -44 21 -143 68 -220
104 -77 37 -149 72 -160 78 -11 6 -29 16 -40 21 -11 6 -27 14 -35 19 -8 4 -26
13 -40 18 -14 6 -32 15 -40 20 -8 6 -23 13 -33 16 -34 12 -785 396 -867 444
-8 4 -73 40 -145 78 -120 65 -201 108 -315 170 -25 13 -63 35 -85 48 -22 13
-58 33 -80 45 -43 23 -214 120 -273 156 -20 12 -53 30 -72 41 -72 39 -223 129
-315 188 -27 17 -80 48 -117 68 -36 20 -72 43 -78 51 -7 8 -18 15 -24 15 -6 0
-36 17 -66 38 -30 21 -62 41 -70 45 -8 4 -34 20 -57 35 -23 15 -77 49 -120 76
-43 28 -143 93 -222 145 -79 53 -151 101 -160 106 -28 18 -154 103 -206 140
-27 20 -66 47 -85 61 -19 13 -60 42 -90 64 -30 22 -75 55 -100 72 -25 17 -76
55 -115 85 -38 29 -96 72 -128 95 -68 51 -409 319 -453 357 -17 14 -44 37 -60
51 -16 14 -58 49 -94 78 -218 180 -571 517 -804 769 -98 105 -130 148 -114
150 7 2 322 -37 699 -86 506 -65 692 -92 711 -105 19 -13 48 -16 129 -16 71 1
239 -17 528 -54 233 -31 428 -53 432 -50 5 3 103 -6 217 -20 114 -14 245 -30
292 -36 360 -42 538 -64 840 -105 96 -13 222 -29 280 -35 111 -11 171 -18 420
-49 85 -11 234 -30 330 -41 96 -12 200 -29 230 -38 36 -10 90 -16 155 -15 89
0 109 4 180 33 44 17 108 41 142 51 87 27 217 89 289 137 64 43 114 70 394
215 96 49 191 100 210 112 19 12 75 41 123 63 49 23 128 64 175 91 48 27 191
101 317 166 127 65 287 148 356 186 70 37 187 99 260 137 74 38 224 116 334
174 334 176 473 248 623 324 78 39 148 76 155 82 6 5 116 62 242 127 127 65
302 156 390 203 88 47 225 118 305 160 362 186 637 336 661 359 14 13 45 64
69 113 79 167 78 335 -3 578 -75 225 -212 440 -555 872 -37 46 -78 100 -91
118 -23 35 -109 145 -198 257 -27 33 -75 96 -108 140 -120 159 -199 261 -240
310 -23 28 -53 66 -66 87 -13 20 -51 70 -84 111 -33 41 -98 124 -145 186 -47
61 -111 144 -144 184 -32 39 -66 83 -75 97 -19 30 -145 193 -236 305 -35 44
-75 96 -88 115 -25 37 -125 167 -205 265 -27 33 -67 85 -88 115 -21 30 -59 80
-85 110 -25 30 -56 71 -69 90 -14 19 -52 69 -85 110 -34 41 -70 89 -80 105
-11 17 -45 60 -77 97 -31 37 -62 78 -69 90 -7 13 -41 59 -77 102 -36 44 -71
95 -79 115 -17 39 -122 161 -233 270 -73 71 -279 216 -330 231 -14 5 -54 21
-90 38 -88 40 -267 99 -337 112 -109 19 -348 38 -553 45 -113 3 -208 9 -212
14 -5 4 15 24 42 45 28 21 50 42 50 46 0 5 10 10 23 12 14 2 23 11 25 25 2 17
9 21 30 20 22 -2 27 2 29 23 0 14 1 30 2 37 1 6 13 11 28 10 23 -2 29 3 31 23
2 14 28 58 58 97 49 66 56 72 74 61 30 -19 48 3 30 37 -12 23 -12 27 8 41 12
8 22 20 22 26 0 6 7 20 17 30 18 20 32 43 60 98 10 19 24 39 31 43 6 4 12 13
12 20 0 7 16 41 35 77 19 36 37 72 41 80 28 73 53 119 76 142 14 16 29 43 33
60 3 18 11 44 18 57 9 19 9 25 -4 35 -14 10 -13 20 7 96 35 131 49 366 33 581
-8 115 -17 179 -26 190 -7 8 -13 26 -13 38 0 12 -18 60 -40 106 -22 46 -40 91
-40 100 0 8 -6 18 -14 21 -8 3 -53 64 -102 135 -85 127 -178 231 -296 331
-112 96 -217 178 -227 178 -6 0 -15 9 -21 20 -6 11 -16 20 -22 20 -7 0 -21 8
-32 18 -26 23 -154 102 -165 102 -5 0 -14 7 -21 16 -8 8 -27 21 -44 28 -17 7
-47 30 -66 49 -19 20 -45 37 -56 37 -12 0 -27 7 -34 15 -7 8 -18 15 -24 15 -6
0 -29 14 -50 30 -22 17 -45 30 -52 30 -8 0 -29 9 -49 20 -20 11 -40 20 -45 20
-5 0 -69 29 -142 64 -119 58 -278 128 -364 160 -18 6 -38 17 -45 23 -8 6 -29
14 -46 18 -18 3 -35 11 -38 16 -9 14 -125 69 -146 69 -11 0 -37 9 -58 20 -22
11 -59 23 -83 26 -23 4 -52 13 -63 20 -11 8 -28 14 -39 14 -18 0 -112 34 -183
66 -17 8 -34 14 -38 14 -3 0 -27 9 -52 21 -25 11 -62 23 -82 26 -20 3 -43 11
-51 19 -8 7 -49 19 -90 27 -41 9 -100 23 -130 32 -30 9 -79 22 -108 30 -29 7
-64 21 -77 29 -14 9 -45 16 -72 16 -28 0 -63 8 -83 19 -19 10 -60 22 -90 26
-30 4 -64 13 -75 19 -11 7 -38 16 -60 20 -21 4 -45 16 -53 27 -10 15 -25 19
-69 19 -36 0 -62 5 -73 15 -10 9 -47 17 -96 21 -43 4 -105 15 -136 25 -32 11
-72 19 -90 19 -18 0 -53 9 -77 20 -24 11 -51 20 -61 20 -10 0 -25 11 -34 25
-19 29 -41 32 -55 8 -7 -13 -12 -14 -23 -6 -7 6 -40 16 -72 22 -33 6 -68 19
-78 28 -16 14 -23 15 -38 5 -28 -17 -75 -15 -155 7 -39 10 -92 22 -120 26 -30
4 -61 17 -78 31 -16 13 -34 21 -39 18 -16 -10 -101 -5 -112 6 -6 6 -20 10 -32
10 -13 0 -25 4 -28 9 -3 5 -49 9 -101 8 -75 0 -98 3 -108 15 -12 16 -57 24
-187 35 -41 3 -79 9 -85 13 -5 4 -53 11 -105 15 -71 5 -102 12 -123 27 -20 14
-48 22 -89 24 -37 1 -67 9 -77 18 -14 13 -43 16 -154 14 -79 -1 -142 3 -149 9
-7 6 -55 16 -105 24 -87 12 -93 14 -93 36 0 27 -26 41 -43 24 -35 -35 -582 13
-645 57 -24 17 -53 20 -242 26 -118 3 -240 11 -270 16 -30 6 -75 13 -100 16
-25 4 -48 13 -53 20 -6 10 -59 12 -245 11 -218 -2 -239 0 -265 17 -26 17 -51
19 -350 19 -232 0 -325 3 -332 12 -5 6 -59 26 -118 45 -106 32 -121 33 -217
18 -28 -5 -333 13 -344 20 -6 3 -38 7 -71 8 -90 3 -207 14 -219 21 -17 11
-274 14 -281 3 -3 -6 -25 -10 -48 -10 -81 0 -262 22 -292 35 -41 19 -276 25
-297 7 -12 -10 -48 -10 -179 0 -90 7 -297 13 -459 13 -232 0 -300 3 -320 14
-14 8 -33 18 -42 23 -31 15 -242 10 -274 -7 -23 -12 -56 -13 -164 -9 -74 3
-145 10 -157 16 -13 7 -83 8 -195 5 -95 -4 -207 -6 -248 -6 -41 -1 -99 -5
-128 -9 -38 -7 -59 -6 -78 4 -37 19 -62 17 -74 -5z m598 -68 c-10 -2 -28 -2
-40 0 -13 2 -5 4 17 4 22 1 32 -1 23 -4z m832 -17 c749 -28 1109 -43 1235 -55
50 -4 113 -6 140 -4 28 3 120 -3 205 -12 290 -30 385 -36 472 -31 64 3 117 -1
195 -16 128 -24 454 -37 502 -20 18 6 31 7 31 2 0 -5 9 -18 20 -28 18 -16 39
-20 138 -22 166 -4 180 -4 248 3 56 5 62 4 67 -13 9 -36 48 -41 230 -30 93 6
170 10 171 8 16 -37 27 -43 92 -51 63 -7 208 -2 244 8 9 3 19 -4 25 -18 6 -13
22 -25 40 -28 50 -11 223 -10 230 1 11 17 30 11 40 -12 9 -20 21 -24 85 -31
74 -8 178 -4 233 9 23 5 27 3 27 -15 0 -34 41 -44 169 -38 108 4 116 3 132
-17 16 -19 29 -21 152 -24 118 -3 137 -6 153 -23 15 -17 31 -19 126 -19 89 0
116 -4 148 -20 26 -13 66 -21 124 -25 52 -3 99 -11 118 -21 25 -13 57 -17 128
-16 81 1 98 -2 116 -19 26 -24 132 -36 187 -21 30 8 37 8 37 -3 0 -26 44 -39
130 -39 69 -1 88 -4 100 -19 11 -14 35 -20 95 -24 48 -3 87 -11 97 -20 11 -10
45 -15 115 -16 84 -2 100 -5 114 -22 13 -15 32 -20 90 -23 50 -3 80 -10 92
-20 13 -11 43 -18 95 -21 53 -2 80 -8 88 -19 7 -10 35 -16 90 -20 44 -2 86
-10 94 -18 8 -7 40 -16 70 -19 30 -4 77 -15 103 -26 33 -14 65 -19 105 -17 47
3 60 -1 79 -19 17 -18 33 -23 75 -23 36 0 63 -6 83 -20 17 -11 46 -20 65 -20
19 0 51 -8 70 -18 19 -11 59 -22 89 -25 30 -4 61 -13 71 -22 9 -8 39 -16 66
-18 27 -2 61 -11 76 -21 15 -10 45 -19 68 -21 22 -1 50 -11 60 -20 13 -11 35
-18 62 -17 24 0 53 -6 65 -14 12 -8 50 -20 83 -28 34 -8 67 -19 74 -25 7 -6
31 -12 52 -14 22 -2 51 -11 64 -19 14 -9 44 -19 67 -23 23 -4 47 -13 54 -21 6
-8 26 -14 43 -14 17 0 48 -9 69 -20 20 -11 43 -20 50 -20 7 0 29 -9 49 -20 21
-11 57 -23 80 -26 24 -4 54 -15 67 -26 13 -10 37 -18 53 -18 17 0 41 -9 55
-20 14 -11 35 -20 45 -20 11 0 31 -9 45 -20 14 -11 38 -20 53 -20 15 0 35 -9
45 -20 12 -13 31 -20 54 -20 24 0 42 -7 54 -20 9 -11 24 -20 32 -20 8 0 15 -7
15 -15 0 -9 8 -18 18 -22 44 -14 159 -69 180 -84 13 -10 29 -16 37 -13 9 4 12
0 9 -13 -8 -30 21 -49 52 -34 28 12 44 7 44 -15 0 -10 12 -14 38 -14 26 0 45
-7 57 -20 10 -11 23 -20 30 -20 7 0 24 -11 39 -25 15 -14 33 -25 41 -25 21 0
156 -74 245 -135 44 -30 83 -55 85 -55 2 0 24 -14 47 -30 24 -17 60 -42 80
-55 75 -50 276 -224 351 -306 123 -134 183 -216 240 -329 84 -170 90 -187 115
-349 37 -246 -34 -593 -180 -874 -95 -184 -280 -427 -429 -564 -13 -12 -29
-28 -35 -35 -30 -36 -268 -237 -344 -291 -14 -10 -41 -29 -60 -43 -35 -26 -37
-26 -165 -20 -126 6 -261 14 -570 36 -82 6 -262 18 -400 26 -137 9 -286 19
-330 23 l-80 7 40 17 c50 22 68 44 55 68 -28 51 -197 48 -315 -6 -38 -18 -86
-38 -105 -45 -29 -10 -196 -1 -965 49 -511 34 -936 61 -944 61 -8 0 -12 3 -9
6 7 6 326 116 478 165 52 16 109 37 125 44 17 8 68 26 115 40 47 15 94 31 105
37 11 6 40 17 65 24 98 28 537 189 616 225 23 10 48 19 56 19 9 0 56 18 106
40 49 22 96 40 103 40 8 0 28 9 44 20 17 11 36 20 43 20 7 0 39 12 70 26 53
24 81 36 142 63 14 6 32 15 40 20 8 5 74 37 145 72 111 53 172 88 319 177 11
7 37 23 57 35 102 61 202 150 318 282 30 34 88 150 106 212 25 86 23 273 -5
378 -27 102 -97 244 -163 332 -96 126 -241 257 -362 329 -28 16 -79 55 -115
88 -36 32 -78 65 -95 73 -58 28 -92 48 -109 66 -10 9 -27 17 -39 17 -13 0 -30
9 -40 20 -9 11 -25 20 -36 20 -10 0 -24 6 -30 14 -7 8 -27 18 -44 22 -18 3
-43 15 -56 25 -13 11 -34 19 -48 19 -13 0 -26 7 -29 15 -4 8 -23 18 -44 21
-22 4 -41 12 -44 20 -3 7 -22 16 -43 19 -21 3 -49 12 -63 19 -14 8 -50 17 -80
21 -81 10 -113 22 -145 55 -16 17 -37 30 -46 30 -10 0 -21 5 -24 10 -4 6 -14
10 -23 9 -32 -5 -117 13 -133 27 -9 8 -40 19 -70 23 -30 5 -67 16 -84 25 -16
9 -38 16 -48 16 -9 0 -34 9 -54 20 -21 11 -54 20 -73 20 -19 0 -52 9 -73 20
-20 11 -54 20 -74 20 -23 0 -45 7 -58 20 -13 12 -38 21 -62 23 -22 1 -48 8
-56 15 -9 8 -46 18 -82 23 -37 5 -76 16 -88 24 -12 8 -39 15 -60 15 -20 0 -54
7 -75 16 -20 9 -65 20 -100 24 -34 4 -71 15 -80 23 -11 10 -43 18 -77 21 -33
2 -73 12 -90 20 -16 9 -49 16 -73 16 -23 0 -59 8 -80 19 -20 10 -71 22 -112
25 -41 4 -88 14 -105 21 -16 7 -52 16 -80 20 -27 4 -60 13 -72 21 -12 8 -46
14 -75 14 -30 0 -71 9 -95 20 -23 10 -75 22 -115 26 -40 3 -87 12 -104 19 -17
7 -69 16 -115 20 -50 4 -91 13 -101 22 -11 10 -43 15 -100 16 -67 2 -86 6 -98
20 -13 15 -35 20 -105 24 -53 3 -96 11 -105 19 -8 7 -51 16 -95 19 -44 4 -97
13 -118 21 -53 20 -202 30 -212 14 -5 -8 -11 -5 -19 12 -9 17 -23 25 -56 30
-71 10 -158 9 -166 -3 -4 -7 -11 -2 -18 12 -14 28 -60 41 -133 37 -67 -4 -88
-24 -59 -57 19 -21 19 -21 -7 -21 -14 0 -38 5 -54 11 -15 6 -55 15 -88 19
l-60 7 76 2 c56 1 80 5 90 17 34 41 -47 70 -156 56 -49 -6 -62 -11 -70 -30 -6
-12 -16 -20 -23 -17 -8 3 -30 6 -50 7 -33 1 -31 2 12 7 57 7 80 31 55 56 -11
11 -45 17 -115 22 -84 5 -101 3 -113 -11 -7 -9 -11 -25 -8 -35 3 -12 0 -18 -7
-15 -6 2 -45 8 -86 13 -68 8 -70 9 -25 10 54 1 75 13 75 43 0 28 -33 38 -131
38 -74 0 -96 3 -112 18 -30 27 -196 25 -227 -3 l-23 -20 13 22 c17 26 0 52
-34 53 -11 0 -53 3 -93 6 -68 6 -73 5 -98 -21 -26 -25 -30 -26 -79 -17 -32 6
-41 10 -23 11 32 1 46 26 26 47 -22 22 -103 28 -167 14 -31 -7 -61 -17 -67
-22 -5 -4 -29 -8 -55 -7 -35 1 -39 3 -20 8 41 11 32 43 -15 57 -63 19 -109 17
-130 -6 -15 -17 -29 -20 -69 -18 -49 3 -50 4 -51 33 0 29 -2 30 -52 33 -28 2
-78 -4 -111 -13 -71 -18 -127 -21 -99 -4 25 14 21 48 -7 60 -18 9 -46 7 -112
-5 -112 -21 -102 -19 -151 -18 -34 2 -40 5 -36 20 2 10 -3 24 -12 32 -13 11
-34 11 -118 2 -144 -17 -143 -17 -142 16 0 27 -1 27 -60 26 -33 -1 -96 -5
-141 -9 -78 -7 -82 -7 -105 17 -27 29 -91 43 -121 27 -23 -13 -141 5 -173 25
-13 8 -66 13 -155 15 -118 2 -137 4 -155 21 -17 16 -36 20 -96 20 -42 0 -98 6
-125 14 -27 8 -101 17 -164 21 -63 4 -123 11 -132 16 -9 5 -76 16 -148 24 -72
8 -134 17 -139 20 -9 5 -101 16 -371 46 -58 6 -114 16 -125 21 -10 6 -42 14
-70 17 -60 9 517 6 765 -3z m3187 -592 c-3 -3 -12 -4 -19 -1 -8 3 -5 6 6 6 11
1 17 -2 13 -5z m278 -54 c7 -12 -2 -12 -30 0 -19 8 -19 9 2 9 12 1 25 -3 28
-9z m1010 -178 c-2 -2 -20 1 -42 7 -21 6 -63 12 -93 13 -44 1 -38 3 30 7 68 5
87 3 97 -9 6 -8 10 -16 8 -18z m336 -52 c46 -3 94 -12 106 -18 12 -7 65 -17
118 -22 54 -6 106 -17 118 -25 21 -15 21 -15 -6 -15 -16 0 -42 7 -58 16 -21
10 -53 15 -104 13 -41 -1 -80 2 -87 8 -19 14 -91 33 -127 33 -17 0 -48 7 -69
16 -20 8 -68 18 -107 22 l-70 7 85 5 c75 4 87 3 101 -14 12 -15 35 -21 100
-26z m549 -100 c16 -16 33 -20 86 -20 47 0 76 -5 98 -19 21 -12 58 -20 112
-24 46 -3 95 -12 113 -21 18 -10 55 -19 84 -22 80 -8 97 -13 97 -29 0 -19 -23
-19 -59 -1 -15 8 -56 18 -92 21 -35 4 -77 14 -94 21 -16 8 -57 19 -90 24 -33
4 -87 15 -120 24 -32 9 -73 16 -91 16 -17 0 -49 7 -70 16 -22 9 -64 20 -94 24
l-55 7 78 2 c65 1 80 -2 97 -19z m777 -159 c7 -3 9 -11 5 -17 -5 -8 -24 -6
-66 7 -33 11 -62 22 -65 25 -8 8 110 -6 126 -15z m167 -37 c18 -7 22 -34 6
-34 -6 0 -18 4 -28 9 -9 5 -28 14 -42 19 -24 10 -23 11 12 11 20 1 43 -2 52
-5z m163 -43 c8 -4 9 -11 3 -21 -8 -12 -14 -12 -44 3 -20 9 -36 21 -36 27 0 9
53 3 77 -9z m205 -40 c4 -3 3 -13 -2 -20 -7 -12 -18 -12 -74 3 -36 10 -66 22
-66 27 0 9 131 0 142 -10z m137 -46 c-12 -12 -21 -14 -42 -6 -38 15 -33 21 15
21 38 0 41 -2 27 -15z m126 -35 c-3 -5 -13 -10 -21 -10 -8 0 -14 5 -14 10 0 6
9 10 21 10 11 0 17 -4 14 -10z m161 -30 l24 0 -20 -20 c-16 -16 -25 -18 -40
-10 -24 13 -28 45 -4 36 9 -3 27 -6 40 -6z m144 -55 c-7 -8 -16 -15 -21 -15
-5 0 -6 7 -3 15 4 8 13 15 21 15 13 0 13 -3 3 -15z m110 -36 c0 -6 -4 -7 -10
-4 -5 3 -10 11 -10 16 0 6 5 7 10 4 6 -3 10 -11 10 -16z m170 -44 c-7 -8 -16
-15 -21 -15 -5 0 -9 7 -9 15 0 9 9 15 21 15 18 0 19 -2 9 -15z m1235 -455 c3
-5 1 -10 -4 -10 -6 0 -11 5 -11 10 0 6 2 10 4 10 3 0 8 -4 11 -10z m280 -160
c3 -5 1 -10 -4 -10 -6 0 -11 5 -11 10 0 6 2 10 4 10 3 0 8 -4 11 -10z m60 -40
c3 -5 1 -10 -4 -10 -6 0 -11 5 -11 10 0 6 2 10 4 10 3 0 8 -4 11 -10z m70 -50
c10 -11 22 -20 26 -20 4 0 19 -10 33 -22 13 -13 55 -50 93 -83 38 -33 102 -98
141 -144 66 -77 72 -87 66 -118 -8 -42 10 -67 43 -58 27 6 30 -3 6 -20 -22
-16 -10 -49 17 -42 16 4 17 2 8 -13 -13 -21 4 -50 28 -50 19 0 18 -16 -2 -24
-13 -5 -14 -16 -9 -61 5 -39 2 -75 -11 -127 l-18 -73 -7 75 c-6 58 -4 77 6 83
10 5 12 22 8 65 -3 31 -9 61 -14 67 -5 5 -9 16 -9 25 0 9 -9 25 -20 35 -11 10
-20 24 -20 32 0 23 -52 115 -102 180 -27 35 -48 66 -48 69 0 13 -211 213 -231
219 -10 4 -19 11 -19 16 0 15 16 10 35 -11z m501 -852 c-18 -10 -21 -43 -6
-53 18 -11 10 -35 -14 -45 -30 -11 -44 -49 -24 -64 18 -14 12 -37 -8 -29 -18
7 -54 -24 -54 -47 0 -9 6 -22 13 -30 10 -12 9 -12 -3 -3 -8 6 -29 14 -47 18
-29 6 -31 8 -21 30 9 20 14 22 28 12 14 -8 22 -8 34 2 20 17 21 60 1 67 -22 9
-18 23 4 17 24 -6 47 27 56 84 4 23 13 47 21 54 8 6 14 28 14 49 0 58 15 58
18 -1 2 -39 -1 -55 -12 -61z m-330 -455 c-1 -1 -12 0 -24 4 -18 4 -20 8 -11
19 10 12 14 11 24 -3 8 -10 12 -19 11 -20z m-266 -143 c0 -5 -2 -10 -4 -10 -3
0 -8 5 -11 10 -3 6 -1 10 4 10 6 0 11 -4 11 -10z m2617 -402 c-3 -8 -6 -5 -6
6 -1 11 2 17 5 13 3 -3 4 -12 1 -19z m-3446 -36 c-7 -2 -18 1 -23 6 -8 8 -4 9
13 5 13 -4 18 -8 10 -11z m3420 -33 c-9 -22 -10 -22 -10 -3 -1 11 2 24 6 27
12 12 14 0 4 -24z m-22 -51 c-16 -32 -16 -32 -16 -3 0 15 5 25 14 25 11 0 11
-4 2 -22z m-45 -85 c-15 -27 -36 -61 -46 -78 l-18 -30 0 27 c0 14 -6 29 -12
31 -7 3 -1 6 15 6 20 1 31 8 40 29 12 26 38 62 45 62 2 0 -9 -21 -24 -47z
m-74 -119 c0 -3 -15 -26 -32 -52 -24 -35 -33 -42 -36 -29 -2 9 -8 17 -13 17
-5 0 -9 6 -9 14 0 9 7 12 19 9 12 -3 25 4 37 21 18 24 34 34 34 20z m-12750
-104 c80 -5 323 -21 540 -35 529 -34 1446 -93 1545 -100 44 -3 118 -8 165 -10
47 -3 150 -10 230 -15 80 -5 217 -14 305 -20 88 -6 225 -15 305 -20 215 -14
435 -28 615 -40 88 -6 225 -15 305 -20 343 -23 487 -32 860 -55 217 -14 427
-27 465 -30 39 -3 142 -9 230 -15 88 -5 192 -12 230 -15 39 -2 108 -7 155 -10
93 -6 183 -12 300 -20 41 -3 147 -10 235 -15 174 -11 383 -24 625 -40 85 -6
223 -15 305 -20 83 -5 220 -14 305 -20 85 -5 225 -14 310 -20 85 -5 223 -14
305 -20 83 -6 222 -15 310 -20 88 -6 264 -17 390 -25 127 -8 338 -22 470 -30
132 -8 309 -19 393 -25 83 -5 223 -15 310 -20 86 -6 222 -15 302 -20 80 -5
216 -14 303 -20 86 -5 228 -15 315 -20 86 -6 222 -15 302 -20 80 -5 219 -15
310 -20 91 -6 226 -15 300 -20 74 -5 221 -14 325 -19 455 -25 535 -31 625 -51
52 -11 103 -23 113 -26 14 -4 4 -18 -51 -72 -78 -77 -125 -159 -172 -303 -17
-52 -38 -107 -45 -124 -8 -16 -24 -95 -35 -175 -34 -239 -40 -271 -60 -360
-11 -47 -49 -224 -86 -395 -92 -434 -172 -808 -189 -885 -14 -67 -111 -520
-240 -1120 -96 -451 -108 -504 -112 -509 -1 -2 -11 4 -22 13 -18 17 -19 16
-26 -14 -8 -38 -3 -45 24 -30 12 6 21 9 21 6 0 -5 -237 -1117 -249 -1171 -6
-22 -73 -337 -151 -700 -77 -363 -151 -705 -165 -760 -37 -153 -49 -256 -48
-420 0 -174 17 -269 62 -352 l30 -55 -47 6 c-26 3 -159 20 -297 36 -137 17
-302 37 -365 45 -63 8 -187 24 -275 35 -88 11 -326 41 -530 65 -578 71 -1488
184 -1615 200 -63 8 -353 44 -645 80 -291 36 -764 95 -1050 130 -286 36 -830
103 -1210 150 -379 47 -906 112 -1170 145 -1503 186 -1799 223 -1985 245 -113
14 -257 32 -320 40 -140 19 -802 101 -920 114 -101 12 -290 35 -450 56 -63 9
-299 38 -525 65 -225 28 -644 80 -930 116 -286 36 -540 67 -564 69 -25 2 -74
8 -110 14 -147 23 -361 50 -434 56 -279 22 -469 163 -516 383 -24 114 -8 290
41 457 11 39 42 149 68 245 146 536 203 744 225 820 40 143 123 441 144 520
11 41 36 134 56 205 38 137 106 386 235 855 43 157 108 393 145 525 36 132 92
337 125 455 69 253 220 802 260 945 15 55 47 170 70 255 23 85 55 200 70 255
16 55 45 163 65 240 44 175 90 269 170 351 65 67 134 107 223 129 61 16 190
15 472 -5z m12615 -79 c-30 -39 -55 -75 -55 -81 0 -18 -371 -380 -396 -386
-12 -3 -31 -4 -41 -1 -15 3 -13 6 10 15 27 11 36 35 17 47 -5 3 -10 12 -10 18
0 7 7 4 14 -5 7 -10 25 -18 40 -18 22 0 26 4 26 30 0 20 -5 30 -15 30 -8 0
-15 5 -15 12 0 6 -7 20 -17 30 -16 17 -15 17 15 2 18 -8 32 -20 32 -25 0 -22
32 -19 66 7 53 41 144 131 144 144 0 5 7 10 15 10 9 0 15 9 15 25 0 20 5 25
25 25 20 0 25 5 25 25 0 15 6 25 15 25 8 0 22 16 31 35 10 22 23 35 35 35 11
0 19 7 19 15 0 25 23 55 43 55 14 0 5 -16 -38 -69z m776 -941 c130 -40 336
-212 439 -365 33 -49 291 -385 395 -515 29 -36 64 -86 78 -112 27 -49 370
-490 437 -563 20 -22 75 -89 121 -150 122 -160 331 -429 598 -770 130 -166
242 -312 250 -325 8 -13 82 -112 165 -220 84 -107 237 -305 341 -440 103 -135
212 -274 240 -310 90 -112 185 -260 250 -392 99 -200 132 -356 101 -478 -26
-103 -44 -117 -297 -248 -884 -458 -1375 -720 -1418 -759 -61 -56 -124 -89
-203 -108 -63 -14 -472 -223 -1463 -745 -49 -26 -238 -125 -420 -220 -583
-305 -658 -346 -750 -402 -122 -74 -200 -109 -214 -95 -7 7 -25 3 -60 -16 -56
-31 -143 -37 -190 -13 -43 23 -87 79 -107 138 -16 44 -19 84 -19 243 0 197 0
199 60 470 13 61 33 155 45 210 23 107 66 310 105 490 14 61 47 218 75 350 28
132 62 290 75 350 13 61 33 155 45 210 23 111 53 251 99 460 17 77 53 248 81
380 27 132 54 258 59 280 6 22 26 115 45 208 41 192 88 412 146 680 22 103 58
271 80 375 22 103 56 259 75 347 83 390 109 508 136 635 17 74 36 167 44 205
8 39 30 144 50 235 46 212 51 237 76 405 12 77 24 142 28 145 4 3 18 45 30 94
53 213 162 350 282 355 15 1 55 -8 90 -19z"/>
<path d="M5044 19155 c-14 -35 1 -41 112 -40 l109 0 0 25 c0 25 0 25 -108 28
-89 2 -108 0 -113 -13z"/>
<path d="M5433 19129 c-19 -19 -16 -37 11 -54 19 -13 51 -15 171 -13 127 3
149 5 159 20 8 14 7 22 -7 35 -15 15 -40 18 -170 21 -113 3 -155 0 -164 -9z"/>
<path d="M5852 19088 c-16 -16 -15 -43 1 -56 7 -6 86 -12 187 -14 142 -2 180
-6 200 -20 20 -13 59 -17 202 -21 98 -2 183 -8 190 -14 26 -20 56 -25 184 -29
87 -2 143 -9 167 -19 24 -10 87 -18 180 -22 91 -4 152 -11 170 -20 18 -9 77
-16 160 -20 86 -4 137 -10 147 -19 10 -8 60 -15 140 -19 69 -4 142 -13 163
-21 21 -8 93 -17 160 -21 72 -3 130 -11 142 -19 12 -7 71 -16 140 -20 66 -4
138 -13 160 -21 22 -8 85 -16 140 -19 55 -3 118 -12 140 -21 22 -8 80 -17 130
-20 51 -3 111 -14 138 -24 75 -29 188 -22 211 14 18 28 -13 47 -95 57 -41 5
-92 16 -114 24 -25 9 -75 15 -134 16 -73 0 -99 4 -112 16 -14 12 -50 19 -143
25 -74 5 -136 14 -153 22 -17 9 -77 18 -153 22 -78 5 -132 13 -145 21 -14 10
-53 14 -132 14 -86 0 -127 5 -168 19 -35 12 -98 22 -177 26 -68 4 -128 11
-134 16 -6 5 -76 13 -155 17 -81 5 -155 14 -168 21 -14 8 -87 16 -185 20 -104
5 -170 12 -186 21 -17 9 -74 15 -174 17 -82 2 -155 8 -161 13 -22 19 -118 30
-249 30 -73 0 -136 4 -141 9 -31 29 -347 45 -373 19z"/>
<path d="M9371 18643 c-49 -40 -3 -73 100 -73 33 0 76 -7 97 -16 24 -11 77
-18 154 -22 124 -5 148 1 148 39 0 34 -39 49 -125 49 -49 0 -98 7 -125 17 -25
9 -86 18 -135 21 -79 4 -93 2 -114 -15z"/>
<path d="M9992 18558 c-20 -20 -14 -33 30 -69 40 -32 47 -34 120 -34 61 0 81
4 95 18 32 32 6 50 -95 67 -50 8 -94 18 -98 23 -11 11 -39 8 -52 -5z"/>
<path d="M10322 18490 c-12 -5 -25 -17 -29 -26 -13 -34 32 -52 182 -70 41 -5
53 -3 65 11 19 23 4 45 -50 73 -47 23 -125 29 -168 12z"/>
<path d="M10692 18414 c-12 -8 -22 -24 -22 -34 0 -34 38 -50 123 -50 85 0 117
11 117 39 0 29 -19 38 -103 50 -97 14 -88 14 -115 -5z"/>
<path d="M11042 18338 c-18 -18 -14 -56 8 -68 10 -6 55 -15 99 -21 90 -12 121
-3 121 35 0 32 -15 42 -84 55 -78 14 -129 14 -144 -1z"/>
<path d="M11410 18255 c-12 -14 -11 -20 2 -43 19 -31 65 -51 121 -51 21 -1 49
-8 63 -17 46 -31 126 12 95 50 -8 9 -25 16 -38 16 -14 0 -38 11 -55 25 -21 18
-41 25 -73 25 -23 0 -56 3 -72 6 -20 4 -33 1 -43 -11z"/>
<path d="M11815 18173 c-29 -8 -45 -23 -45 -44 0 -23 24 -36 81 -45 24 -4 53
-13 64 -20 36 -23 112 -28 140 -10 50 33 16 86 -55 86 -19 0 -48 7 -64 15 -33
17 -92 26 -121 18z"/>
<path d="M12217 18042 c-37 -40 -3 -82 66 -82 21 0 55 -9 77 -20 69 -35 160
-18 160 30 0 24 -21 35 -85 48 -28 6 -68 17 -90 26 -55 21 -108 20 -128 -2z"/>
<path d="M12628 17923 c-10 -11 -18 -26 -18 -35 0 -23 33 -48 64 -48 15 0 44
-9 66 -20 22 -11 50 -20 63 -20 12 0 28 -5 33 -10 17 -17 112 -25 129 -10 33
27 17 48 -60 85 -42 19 -86 35 -98 35 -12 0 -32 7 -45 15 -12 9 -43 18 -69 22
-39 4 -51 2 -65 -14z"/>
<path d="M13103 17770 c-17 -7 -23 -18 -23 -40 0 -28 6 -33 73 -65 41 -19 80
-35 88 -35 8 0 20 -5 26 -11 6 -6 44 -13 84 -16 82 -6 104 5 97 48 -2 18 -14
26 -53 37 -27 8 -68 23 -90 33 -126 57 -163 66 -202 49z"/>
<path d="M13587 17603 c-4 -3 -7 -14 -7 -23 0 -11 -8 -16 -22 -16 -60 2 -2
-87 65 -99 20 -4 37 -11 37 -16 0 -4 18 -13 40 -19 22 -6 40 -15 40 -20 0 -4
15 -13 33 -19 19 -6 51 -20 72 -31 47 -24 83 -25 113 -4 51 35 50 74 -1 95
-18 7 -42 23 -54 36 -12 13 -32 23 -43 23 -12 0 -28 7 -36 15 -9 8 -27 15 -41
15 -16 0 -27 7 -30 19 -5 20 -54 38 -73 26 -5 -3 -20 1 -32 9 -24 17 -50 21
-61 9z"/>
<path d="M14042 17363 c-25 -10 -33 -41 -15 -58 15 -16 15 -19 0 -45 -16 -26
-16 -30 -1 -45 9 -9 23 -14 30 -11 10 4 14 -3 14 -19 0 -20 5 -25 25 -25 20 0
25 5 25 25 0 18 -5 25 -20 25 -11 0 -20 5 -20 10 0 17 21 11 54 -15 60 -48 71
-56 111 -77 22 -11 54 -31 70 -44 96 -76 91 -74 140 -57 47 16 68 46 53 78 -5
11 -45 43 -88 70 -44 28 -79 53 -80 57 0 4 -29 23 -65 43 -36 20 -65 43 -65
51 0 10 -14 14 -56 14 -36 0 -61 5 -70 15 -16 16 -21 17 -42 8z"/>
<path d="M14550 16990 c-35 -35 -25 -59 57 -139 42 -42 108 -116 146 -166 38
-49 75 -94 83 -98 8 -4 33 -9 55 -10 32 -1 45 4 60 22 11 13 19 29 19 36 0 39
-241 309 -311 349 -56 31 -82 33 -109 6z"/>
<path d="M14952 16490 c-40 -17 -46 -49 -22 -119 25 -75 50 -202 50 -256 0
-62 19 -89 65 -95 56 -8 74 -2 91 31 33 64 -32 381 -87 425 -21 17 -71 24 -97
14z"/>
<path d="M14936 15818 c-9 -12 -16 -27 -16 -34 0 -27 -90 -187 -152 -269 -37
-49 -68 -96 -68 -103 0 -17 20 -55 34 -64 16 -11 69 -10 105 3 62 22 261 356
261 440 0 31 -34 49 -93 49 -46 0 -58 -4 -71 -22z"/>
<path d="M14541 15245 c-24 -8 -58 -27 -75 -43 -57 -53 -235 -183 -290 -212
-33 -17 -48 -47 -35 -72 22 -41 166 -47 216 -8 46 35 204 154 227 170 39 28
92 85 103 111 26 62 -41 87 -146 54z"/>
<path d="M13916 14823 c-10 -3 -41 -19 -70 -36 -73 -43 -187 -106 -216 -119
-113 -49 -200 -110 -200 -140 0 -27 39 -38 130 -38 78 0 82 1 202 63 68 35
139 73 158 85 19 12 59 34 88 47 28 14 52 29 52 33 0 4 10 12 22 17 39 18 45
41 18 70 -21 22 -31 25 -94 24 -39 -1 -79 -3 -90 -6z"/>
<path d="M1717 11818 c-263 -942 -480 -1722 -483 -1734 -5 -20 0 -21 178 -33
101 -7 194 -14 208 -17 l26 -5 189 687 c105 378 195 692 200 699 8 10 73 7
300 -11 585 -46 886 -24 1171 87 320 125 559 374 657 685 48 150 61 246 61
424 0 146 -3 174 -25 245 -34 110 -88 203 -167 287 -149 157 -345 248 -645
297 -67 11 -338 36 -602 56 -264 19 -505 37 -535 41 l-55 5 -478 -1713z m1135
1327 c412 -32 534 -57 698 -140 68 -35 169 -130 203 -194 63 -114 74 -320 28
-501 -66 -258 -237 -440 -496 -528 -161 -54 -379 -76 -615 -61 -210 13 -533
39 -537 43 -3 3 351 1287 378 1374 6 17 13 32 15 32 3 0 150 -11 326 -25z"/>
<path d="M5560 13204 c-82 -7 -194 -25 -240 -40 -25 -7 -76 -23 -115 -35 -96
-28 -278 -118 -382 -189 -157 -107 -333 -288 -429 -440 -51 -82 -141 -274
-159 -340 -10 -36 -22 -72 -26 -81 -24 -48 -50 -261 -49 -409 1 -264 43 -445
162 -684 63 -128 117 -209 217 -323 120 -136 328 -299 447 -349 19 -8 34 -18
34 -23 0 -22 321 -114 475 -136 169 -24 403 -11 560 31 325 86 632 281 820
519 22 28 43 52 46 55 21 16 132 210 166 290 105 244 139 423 130 680 -7 188
-22 275 -70 416 -49 141 -65 179 -116 269 -115 207 -210 313 -460 517 -29 24
-131 82 -216 123 -191 92 -408 145 -615 150 -74 1 -155 1 -180 -1z m225 -344
c347 -25 676 -215 881 -508 63 -90 140 -252 158 -332 8 -36 22 -90 32 -120 14
-43 17 -92 17 -225 0 -153 -2 -181 -27 -279 -26 -104 -93 -273 -120 -306 -7
-8 -25 -37 -40 -63 -45 -79 -223 -250 -341 -329 -132 -89 -339 -174 -481 -199
-98 -17 -358 -6 -459 19 -185 47 -380 153 -519 283 -179 167 -289 355 -353
601 -24 92 -27 121 -26 268 0 177 10 246 59 389 156 451 557 762 1039 804 22
2 45 4 50 5 6 1 64 -3 130 -8z"/>
<path d="M5866 12653 c-9 -37 -26 -106 -37 -153 -11 -47 -35 -150 -55 -229
-19 -79 -36 -148 -37 -154 -2 -9 12 -15 75 -30 26 -7 28 -4 42 45 8 29 27 107
42 173 15 66 38 163 52 215 14 52 28 112 32 132 7 38 7 38 -32 49 -22 5 -45
12 -52 15 -10 4 -19 -15 -30 -63z"/>
<path d="M5128 12574 c-21 -13 -38 -26 -38 -28 0 -2 29 -50 64 -107 36 -57 95
-153 132 -214 37 -60 82 -134 100 -162 l34 -53 35 24 c20 14 40 26 46 28 6 2
-32 73 -84 158 -52 85 -125 206 -163 268 -37 61 -73 112 -79 111 -5 0 -27 -11
-47 -25z"/>
<path d="M6460 12215 c-98 -62 -157 -98 -290 -178 -52 -32 -106 -66 -119 -76
l-24 -19 28 -44 28 -45 261 160 c144 87 265 163 269 167 11 9 -41 90 -57 89
-6 0 -49 -25 -96 -54z"/>
<path d="M4661 11924 c-7 -26 -8 -50 -4 -54 4 -5 58 -20 118 -34 61 -14 193
-46 295 -70 102 -25 188 -41 191 -38 4 4 9 28 12 53 l6 47 -42 11 c-23 6 -100
24 -172 41 -71 17 -184 44 -250 61 -66 16 -125 29 -131 29 -7 0 -17 -21 -23
-46z"/>
<path d="M5564 11945 c-215 -106 -231 -390 -29 -522 75 -49 196 -58 276 -19
153 73 216 248 145 399 -50 105 -137 160 -261 164 -69 3 -87 0 -131 -22z m221
-108 c56 -31 99 -114 91 -176 -13 -97 -91 -172 -184 -174 -100 -4 -192 88
-192 191 0 45 25 106 57 134 56 51 161 63 228 25z"/>
<path d="M6115 11618 c-12 -37 -24 -92 -20 -96 2 -2 43 -13 92 -23 108 -24
178 -40 358 -85 77 -19 148 -36 157 -38 11 -2 15 1 11 10 -3 8 -1 14 3 14 5 0
9 19 9 41 l0 42 -90 23 c-49 13 -112 28 -140 34 -48 10 -321 76 -358 86 -9 3
-19 -1 -22 -8z"/>
<path d="M5203 11441 c-277 -168 -401 -244 -423 -261 l-24 -18 28 -41 c16 -23
32 -41 36 -41 6 0 121 70 325 197 33 21 93 57 133 80 70 43 82 55 62 68 -6 3
-18 21 -28 39 l-17 33 -92 -56z"/>
<path d="M5921 11314 c-19 -13 -39 -25 -45 -27 -6 -2 10 -37 35 -78 26 -41 99
-161 164 -266 64 -106 122 -193 128 -193 21 0 87 52 80 64 -4 6 -51 82 -105
169 -54 87 -98 161 -98 163 0 3 -10 20 -23 37 -13 18 -31 48 -41 67 -10 19
-28 47 -39 62 l-22 26 -34 -24z"/>
<path d="M5516 11198 c-9 -40 -30 -131 -47 -203 -17 -71 -39 -168 -50 -215
-11 -47 -22 -92 -25 -101 -5 -17 21 -31 77 -43 25 -5 27 -3 33 32 4 20 16 69
26 107 11 39 33 131 49 205 17 74 37 158 46 185 23 78 22 82 -35 94 -28 6 -52
11 -54 11 -2 0 -11 -33 -20 -72z"/>
<path d="M7901 12783 c-90 -295 -991 -3332 -991 -3340 0 -6 26 -13 58 -16 147
-15 352 -30 355 -26 2 2 100 329 217 727 l213 722 36 0 c68 0 565 -50 572 -58
4 -4 105 -349 225 -767 119 -418 218 -762 220 -764 5 -6 434 -44 439 -40 2 2
-102 355 -231 784 -128 429 -234 783 -234 786 0 3 48 14 108 23 360 59 663
240 838 502 97 145 148 280 179 469 32 194 13 371 -55 510 -118 243 -346 389
-725 464 -72 15 -1117 121 -1187 121 -4 0 -21 -44 -37 -97z m1056 -343 c306
-61 487 -193 532 -390 15 -64 13 -196 -3 -283 -31 -163 -98 -288 -213 -398
-166 -159 -404 -240 -708 -238 -121 0 -689 50 -700 61 -5 4 211 750 360 1244
l24 80 303 -28 c167 -15 349 -37 405 -48z"/>
<path d="M11180 12494 c-82 -7 -194 -25 -240 -40 -25 -7 -76 -23 -115 -35 -96
-28 -278 -118 -382 -189 -157 -107 -333 -288 -429 -440 -51 -82 -141 -274
-159 -340 -10 -36 -22 -72 -26 -81 -24 -48 -50 -261 -49 -409 1 -264 43 -445
162 -684 63 -128 117 -209 217 -323 120 -136 328 -299 447 -349 19 -8 34 -18
34 -23 0 -22 321 -114 475 -136 169 -24 403 -11 560 31 325 86 632 281 820
519 22 28 43 52 46 55 21 16 132 210 166 290 105 244 139 423 130 680 -7 188
-22 275 -70 416 -49 141 -65 179 -116 269 -115 207 -210 313 -460 517 -29 24
-131 82 -216 123 -191 92 -408 145 -615 150 -74 1 -155 1 -180 -1z m225 -344
c407 -30 780 -282 967 -653 39 -79 71 -157 66 -163 -2 -1 -258 -61 -570 -134
l-566 -131 -547 155 c-301 85 -550 157 -552 160 -7 7 55 141 96 206 202 322
543 530 926 563 22 2 45 4 50 5 6 1 64 -3 130 -8z m-540 -1188 l310 -87 3
-547 2 -547 -37 6 c-233 33 -466 145 -637 304 -179 167 -289 355 -353 601 -23
90 -26 124 -27 263 -1 88 2 172 6 186 l8 26 207 -58 c115 -33 348 -98 518
-147z m1631 102 c11 -78 -5 -271 -32 -383 -25 -99 -91 -268 -118 -301 -7 -8
-25 -37 -40 -63 -45 -79 -223 -250 -341 -329 -153 -102 -426 -207 -542 -208
l-23 0 0 538 0 538 167 38 c92 21 174 43 183 47 18 11 684 167 717 168 18 1
23 -6 29 -45z"/>
<path d="M16758 13238 c-73 -46 -115 -126 -98 -186 6 -20 57 -233 115 -472 57
-239 151 -631 209 -870 225 -933 311 -1290 401 -1665 52 -214 142 -588 200
-830 59 -242 131 -543 161 -670 30 -126 58 -233 62 -237 4 -4 358 182 787 414
429 231 822 440 872 464 116 55 143 90 143 184 0 33 -4 68 -9 78 -6 9 -21 44
-36 76 -24 57 -73 129 -315 471 -127 180 -237 336 -473 671 l-177 252 -73 16
c-39 9 -114 23 -166 31 -52 8 -96 16 -98 19 -2 2 10 26 27 52 68 108 76 225
22 333 -57 114 -441 691 -912 1371 -343 496 -307 450 -379 484 -53 25 -81 31
-146 34 -69 3 -85 0 -117 -20z m207 -145 c27 -13 63 -57 157 -192 67 -97 156
-225 198 -286 69 -99 227 -331 542 -795 151 -223 308 -469 329 -515 39 -85 10
-173 -91 -269 -47 -45 -65 -56 -92 -56 -103 -1 -255 -65 -314 -134 -44 -51
-109 -225 -91 -243 16 -16 312 117 428 192 l74 48 125 -12 c69 -6 163 -19 210
-29 l85 -17 110 -156 c60 -86 179 -255 264 -375 171 -242 268 -380 414 -586
102 -144 157 -245 157 -289 0 -20 -9 -29 -47 -46 -27 -11 -381 -201 -788 -421
l-740 -399 -9 36 c-4 20 -28 117 -52 216 -23 99 -70 295 -104 435 -68 285
-215 894 -321 1335 -39 160 -95 391 -124 515 -30 124 -108 450 -175 725 -274
1135 -312 1297 -306 1311 14 36 92 40 161 7z"/>
<path d="M16500 13081 l-45 -6 -7 -745 c-12 -1286 -28 -4781 -23 -4791 7 -10
26 -3 86 33 l46 28 6 827 c4 454 7 1004 7 1222 l1 396 264 160 c146 88 271
161 278 163 8 1 83 -284 241 -920 267 -1077 306 -1228 316 -1228 3 0 31 14 62
30 l56 30 -94 373 c-51 204 -321 1283 -599 2395 -277 1113 -507 2028 -511
2033 -6 10 -12 10 -84 0z m579 -2546 c0 -8 -232 -153 -459 -287 l-45 -27 2
752 c2 414 6 925 9 1137 l7 385 243 -975 c134 -536 243 -979 243 -985z"/>
<path d="M16127 12979 c-25 -14 -44 -57 -52 -114 -7 -50 -172 -922 -346 -1825
-50 -261 -104 -542 -119 -625 -76 -402 -134 -708 -170 -890 -21 -110 -64 -330
-94 -490 -195 -1024 -272 -1416 -302 -1538 -84 -337 -65 -553 55 -634 53 -36
190 -28 175 10 -2 7 30 31 83 60 49 26 140 77 203 112 63 36 153 85 200 110
173 94 206 115 249 157 90 87 159 225 203 406 17 72 21 121 22 277 l1 190 -65
0 -65 0 -6 -180 c-8 -245 -44 -385 -132 -517 -39 -58 -133 -139 -179 -154 -12
-3 -151 -85 -309 -180 -159 -96 -292 -174 -297 -174 -5 0 -17 9 -27 20 -14 16
-20 42 -23 106 -5 98 8 194 48 349 28 110 47 206 245 1245 58 305 123 645 145
755 21 110 71 369 110 575 39 206 86 454 105 550 19 96 66 344 105 550 39 206
86 454 105 550 19 96 71 366 115 600 45 234 84 436 87 449 5 20 10 14 30 -39
33 -89 36 -92 81 -73 20 8 47 19 60 24 22 8 22 9 6 51 -40 106 -115 247 -144
272 -33 27 -72 33 -103 15z"/>
<path d="M6934 5881 c-27 -5 -41 -18 -48 -47 -5 -20 4 -41 41 -96 26 -38 63
-93 82 -122 74 -113 293 -413 406 -556 231 -295 425 -524 451 -534 25 -9 347
-7 363 3 10 6 12 20 8 46 -5 28 -27 60 -99 138 -51 56 -127 143 -168 192 -41
50 -86 104 -101 120 -15 17 -59 71 -97 120 -39 50 -84 106 -100 125 -16 19
-51 64 -78 100 -28 36 -79 103 -115 150 -57 74 -147 201 -215 304 -12 17 -28
36 -35 43 -13 10 -252 22 -295 14z"/>
<path d="M8396 4005 c-36 -37 -23 -54 237 -312 138 -137 285 -281 326 -319 41
-38 122 -114 179 -169 144 -137 147 -140 253 -230 88 -76 209 -191 237 -228
11 -15 40 -17 257 -17 208 0 246 2 259 16 9 8 16 20 16 25 0 15 -62 73 -171
161 -52 42 -122 101 -155 130 -33 29 -82 71 -109 93 -27 22 -69 59 -94 81 -25
23 -66 59 -91 81 -262 233 -396 359 -634 593 l-107 105 -193 3 c-168 3 -196 1
-210 -13z"/>
<path d="M12512 1350 c-237 -49 -391 -299 -338 -550 41 -193 183 -350 317
-350 14 0 31 6 36 12 16 20 27 575 12 618 -14 45 -43 70 -80 70 -22 0 -30 -5
-33 -22 -15 -71 -37 -391 -34 -486 1 -62 0 -112 -4 -112 -12 0 -67 73 -97 130
-122 228 -49 503 160 611 63 32 191 38 235 11 80 -51 103 -200 49 -321 -19
-43 -45 -78 -84 -113 l-55 -50 27 -24 c20 -17 40 -24 72 -24 36 0 47 -5 69
-31 33 -39 35 -98 3 -153 -28 -50 -51 -65 -74 -50 -46 29 -11 93 50 94 19 0
27 4 24 13 -7 21 -102 14 -134 -9 -83 -62 -38 -146 86 -161 97 -11 171 57 179
165 5 71 -21 115 -90 152 l-46 25 34 39 c65 75 101 228 74 312 -47 145 -206
235 -358 204z m-65 -362 c-3 -7 -5 -2 -5 12 0 14 2 19 5 13 2 -7 2 -19 0 -25z
m30 -45 c-3 -10 -5 -4 -5 12 0 17 2 24 5 18 2 -7 2 -21 0 -30z m-40 -50 c-3
-10 -5 -4 -5 12 0 17 2 24 5 18 2 -7 2 -21 0 -30z m30 -55 c-2 -13 -4 -3 -4
22 0 25 2 35 4 23 2 -13 2 -33 0 -45z m0 -300 c-3 -8 -6 -5 -6 6 -1 11 2 17 5
13 3 -3 4 -12 1 -19z"/>
<path d="M14196 1299 c-75 -70 -125 -135 -172 -223 -35 -65 -38 -63 -49 17
-20 151 -96 257 -183 257 -53 0 -76 -56 -24 -62 23 -2 31 -12 49 -58 24 -63
43 -181 43 -275 l0 -65 -52 -40 c-51 -41 -101 -71 -115 -70 -18 2 -12 -30 7
-40 24 -13 73 -1 128 32 l32 20 0 -24 c-2 -78 -42 -230 -72 -265 -14 -17 -38
1 -38 28 0 11 -4 19 -9 19 -48 0 -57 -56 -15 -89 52 -41 123 -20 174 50 34 47
65 137 79 228 6 35 12 65 14 68 3 2 17 -27 32 -64 52 -128 92 -208 120 -241
61 -72 130 -79 184 -17 l30 35 33 -20 c39 -24 107 -26 147 -6 32 17 88 77 127
136 l27 41 18 -71 c30 -116 67 -152 133 -130 42 14 62 35 97 107 24 50 28 54
29 30 0 -51 27 -97 64 -112 84 -35 149 -7 238 101 l62 76 12 -73 c14 -82 39
-123 77 -127 30 -4 38 9 57 89 15 66 93 235 82 179 -4 -19 -7 -63 -7 -97 1
-72 20 -106 78 -138 55 -30 82 -15 144 78 60 92 78 133 59 140 -8 3 -33 -25
-61 -69 -27 -40 -62 -86 -78 -101 l-29 -28 7 160 c7 160 7 160 -16 181 -41 36
-57 36 -94 1 -19 -17 -49 -57 -66 -87 l-31 -55 6 40 c3 22 8 101 12 175 6 113
4 145 -10 195 -20 67 -49 105 -80 105 -20 0 -21 -6 -23 -102 -1 -56 -9 -169
-18 -252 l-16 -151 -55 -67 c-110 -133 -164 -166 -185 -110 -15 39 -5 140 19
196 21 47 42 54 42 15 0 -30 32 -20 44 13 7 20 5 33 -8 52 -35 55 -145 19
-194 -63 -15 -24 -52 -91 -82 -149 -30 -58 -60 -107 -67 -109 -35 -12 -48 96
-38 319 l7 165 137 7 c75 4 178 9 229 13 l93 6 -3 31 -3 31 -70 -3 c-38 -2
-139 -9 -222 -16 l-153 -12 0 53 c0 40 -5 58 -20 73 -24 24 -32 25 -59 3 -12
-11 -26 -41 -33 -78 l-13 -60 -50 -3 c-54 -4 -77 -16 -68 -38 3 -10 21 -14 57
-14 l52 0 -4 -132 -4 -133 -57 -79 c-61 -85 -93 -116 -122 -116 -23 0 -49 48
-49 90 0 27 3 30 29 30 40 0 73 47 79 112 7 76 -37 110 -116 88 -90 -24 -145
-146 -118 -265 5 -23 1 -37 -18 -60 l-24 -30 -29 21 c-39 29 -74 84 -123 194
-48 107 -81 156 -115 172 -23 10 -22 13 55 99 91 101 192 235 221 292 27 51
22 81 -13 85 -20 2 -40 -10 -92 -59z m2 -60 c-73 -88 -103 -118 -62 -64 39 52
95 115 102 115 2 0 -16 -23 -40 -51z m559 -281 c-3 -8 -6 -5 -6 6 -1 11 2 17
5 13 3 -3 4 -12 1 -19z m660 -65 c-3 -10 -5 -4 -5 12 0 17 2 24 5 18 2 -7 2
-21 0 -30z m-887 -126 c0 -22 -37 -87 -50 -87 -26 0 -22 63 7 108 11 19 17 21
29 11 8 -6 14 -20 14 -32z m-613 -9 c-3 -7 -5 -2 -5 12 0 14 2 19 5 13 2 -7 2
-19 0 -25z m1080 -140 c-3 -7 -5 -2 -5 12 0 14 2 19 5 13 2 -7 2 -19 0 -25z"/>
<path d="M16436 1315 c-117 -42 -272 -195 -318 -317 -31 -81 -25 -136 23 -206
42 -64 87 -102 207 -172 39 -23 72 -48 72 -55 0 -16 -56 -65 -75 -65 -7 0 -20
-3 -28 -6 -11 -4 -16 2 -19 17 -2 12 -11 27 -21 33 -28 17 -49 -16 -35 -55 17
-48 72 -89 121 -89 59 0 142 41 162 80 34 66 -18 132 -192 244 -114 73 -124
88 -103 163 30 106 182 283 290 338 87 44 87 30 0 -71 -54 -63 -114 -169 -124
-220 -11 -51 16 -101 66 -124 53 -23 70 -13 57 32 -12 43 0 83 65 209 30 58
57 121 61 141 20 104 -87 167 -209 123z m-106 -98 c0 -1 -26 -27 -57 -57 l-58
-55 55 58 c50 53 60 62 60 54z m50 0 c0 -2 -10 -12 -22 -23 l-23 -19 19 23
c18 21 26 27 26 19z"/>
<path d="M19207 1315 c-104 -39 -243 -169 -299 -278 -26 -50 -32 -74 -33 -127
0 -60 3 -69 40 -121 49 -68 75 -90 188 -158 58 -35 87 -58 87 -71 0 -20 -37
-48 -82 -60 -25 -8 -30 -6 -38 15 -11 29 -23 37 -44 29 -30 -11 -19 -60 22
-104 33 -34 45 -40 79 -40 109 0 200 72 178 141 -14 42 -97 119 -197 180 -136
84 -142 105 -70 244 44 84 162 208 242 254 98 55 99 43 5 -74 -133 -166 -151
-285 -51 -334 51 -26 61 -17 57 50 -2 45 5 67 65 191 64 134 67 141 58 185
-12 60 -45 85 -116 89 -30 2 -69 -3 -91 -11z m-107 -98 c0 -1 -26 -27 -57 -57
l-58 -55 55 58 c50 53 60 62 60 54z m50 0 c0 -2 -15 -16 -32 -33 l-33 -29 29
33 c28 30 36 37 36 29z"/>
<path d="M20280 1257 c-48 -15 -117 -87 -147 -153 -18 -40 -27 -80 -31 -140
-5 -83 -5 -84 -32 -84 -40 0 -76 -33 -109 -103 l-30 -62 -1 71 c0 79 -9 91
-56 74 -25 -10 -54 -62 -54 -98 0 -25 -67 -145 -106 -190 -18 -21 -35 -33 -42
-28 -15 9 -16 156 -1 246 9 57 8 66 -7 77 -25 18 -51 16 -72 -5 -16 -16 -22
-17 -37 -5 -43 30 -126 8 -163 -45 -53 -73 -78 -224 -46 -270 18 -26 64 -52
93 -52 24 0 66 48 81 96 l13 37 16 -48 c18 -54 48 -81 102 -90 46 -8 82 21
124 99 17 31 32 56 35 56 3 0 11 -32 17 -70 11 -73 33 -110 63 -110 27 0 38
21 55 101 18 89 39 149 73 207 l25 44 13 -30 c9 -22 20 -31 39 -34 23 -3 31
-12 49 -64 50 -139 109 -204 182 -204 60 0 110 45 153 139 64 140 38 168 -30
32 -56 -113 -69 -127 -99 -111 -20 11 -90 140 -90 167 0 6 12 18 27 25 71 34
192 236 214 358 14 80 -2 129 -53 160 -37 22 -110 25 -168 7z m156 -52 c42
-64 -12 -237 -122 -390 -67 -95 -75 -90 -94 62 -16 126 12 244 72 300 60 56
118 67 144 28z m-892 -416 c6 -31 -20 -91 -78 -184 l-25 -40 -1 30 c0 73 60
225 89 225 5 0 11 -14 15 -31z m53 -91 c-3 -7 -5 -2 -5 12 0 14 2 19 5 13 2
-7 2 -19 0 -25z"/>
<path d="M17644 919 c-9 -15 14 -29 49 -29 20 0 27 5 27 20 0 16 -7 20 -34 20
-19 0 -38 -5 -42 -11z"/>
<path d="M17125 853 c-15 -16 -38 -50 -51 -78 l-24 -50 0 62 c0 68 -15 88 -55
73 -29 -11 -41 -29 -55 -79 -21 -81 -152 -251 -192 -251 -22 0 -45 34 -53 83
-7 36 -6 37 23 37 55 0 105 88 88 155 -4 16 -20 32 -39 41 -44 21 -109 4 -149
-38 -36 -39 -62 -127 -54 -185 13 -99 66 -147 154 -140 67 5 93 24 160 116 51
72 52 73 52 40 0 -56 27 -152 46 -166 42 -31 68 -6 83 80 15 85 46 173 78 222
l27 40 8 -34 c8 -30 12 -33 43 -29 33 4 33 3 39 -44 10 -71 43 -171 67 -202
26 -33 66 -35 78 -3 5 12 22 72 37 132 l29 110 70 3 70 3 0 -68 c1 -94 11
-137 41 -173 21 -25 33 -30 68 -30 49 0 79 25 119 102 l25 48 7 -33 c12 -55
35 -88 70 -103 81 -34 149 -5 231 97 l59 72 7 -46 c14 -97 67 -143 157 -135
44 4 59 12 93 44 48 46 140 182 132 195 -11 18 -24 7 -78 -70 -88 -126 -135
-151 -162 -86 -7 19 -14 46 -14 60 0 21 5 25 29 25 36 0 66 35 82 94 36 134
-151 153 -218 22 -21 -41 -148 -191 -183 -216 -60 -43 -85 -13 -78 94 3 48 13
86 28 116 22 43 24 44 30 20 4 -16 13 -25 25 -25 16 0 21 8 23 38 4 49 -11 67
-57 67 -48 0 -101 -29 -128 -71 -12 -19 -29 -42 -37 -51 -9 -10 -31 -48 -50
-86 -35 -70 -81 -132 -96 -132 -17 0 -22 90 -11 190 13 123 8 140 -49 140 -30
0 -40 -5 -45 -20 -12 -38 -34 -50 -91 -50 -59 0 -60 3 -45 58 11 38 -4 51 -38
33 -32 -17 -43 -46 -30 -74 9 -20 7 -40 -11 -101 -13 -41 -26 -73 -30 -71 -4
3 -10 37 -14 77 -11 109 -23 147 -52 160 -19 9 -30 9 -44 0 -14 -9 -21 -8 -30
3 -21 26 -84 19 -115 -12z m-367 -84 c3 -37 -31 -95 -49 -84 -14 9 -11 53 7
91 20 42 38 39 42 -7z m1666 25 c10 -27 7 -48 -14 -82 -17 -28 -23 -32 -36
-21 -17 14 -11 59 12 97 17 26 29 28 38 6z m-137 -146 c-3 -8 -6 -5 -6 6 -1
11 2 17 5 13 3 -3 4 -12 1 -19z"/>
<path d="M13208 853 c-8 -10 -22 -38 -31 -63 -19 -51 -100 -198 -122 -220 -13
-12 -15 -7 -15 45 0 33 8 95 19 137 19 82 15 98 -24 98 -51 0 -105 -118 -105
-230 0 -48 5 -64 26 -89 28 -34 81 -49 112 -32 10 6 38 45 60 88 l41 78 1
-114 0 -113 -46 -51 c-97 -108 -143 -201 -124 -251 18 -50 85 -50 140 0 61 55
106 161 135 314 2 14 25 52 49 83 46 60 96 154 96 181 0 33 -26 14 -57 -42
-18 -31 -44 -70 -58 -87 l-26 -30 4 147 c3 95 0 151 -6 157 -17 17 -52 13 -69
-6z m-79 -597 c-11 -31 -32 -69 -45 -84 l-23 -27 -1 28 c0 32 20 76 58 126 34
45 38 28 11 -43z"/>
</g>
</svg>
